<mxfile host="app.diagrams.net" agent="Mozilla/5.0 (Windows NT 10.0; Win64; x64) AppleWebKit/537.36 (KHTML, like Gecko) Chrome/136.0.0.0 Safari/537.36 Edg/136.0.0.0" version="26.1.0">
  <diagram name="Pipeline CI" id="DZOLik3dUk2R6rX8Pns0">
    <mxGraphModel dx="986" dy="455" grid="1" gridSize="10" guides="1" tooltips="1" connect="1" arrows="1" fold="1" page="1" pageScale="1" pageWidth="827" pageHeight="1169" math="0" shadow="0">
      <root>
        <mxCell id="0" />
        <mxCell id="1" parent="0" />
        <mxCell id="fL5yJduJs7yv6D4JIbk3-1" value="Llamada WebHook&lt;div&gt;(Github)&lt;/div&gt;" style="rounded=1;whiteSpace=wrap;html=1;" vertex="1" parent="1">
          <mxGeometry x="60" y="180" width="120" height="60" as="geometry" />
        </mxCell>
        <mxCell id="fL5yJduJs7yv6D4JIbk3-2" value="" style="endArrow=classic;html=1;rounded=0;exitX=1;exitY=0.5;exitDx=0;exitDy=0;" edge="1" parent="1" source="fL5yJduJs7yv6D4JIbk3-1">
          <mxGeometry width="50" height="50" relative="1" as="geometry">
            <mxPoint x="360" y="260" as="sourcePoint" />
            <mxPoint x="220" y="210" as="targetPoint" />
          </mxGeometry>
        </mxCell>
        <mxCell id="fL5yJduJs7yv6D4JIbk3-3" value="Inicio Pipeline" style="rounded=1;whiteSpace=wrap;html=1;" vertex="1" parent="1">
          <mxGeometry x="220" y="180" width="120" height="60" as="geometry" />
        </mxCell>
        <mxCell id="fL5yJduJs7yv6D4JIbk3-4" value="" style="endArrow=classic;html=1;rounded=0;exitX=1;exitY=0.5;exitDx=0;exitDy=0;" edge="1" parent="1" source="fL5yJduJs7yv6D4JIbk3-3">
          <mxGeometry width="50" height="50" relative="1" as="geometry">
            <mxPoint x="520" y="260" as="sourcePoint" />
            <mxPoint x="380" y="210" as="targetPoint" />
          </mxGeometry>
        </mxCell>
        <mxCell id="fL5yJduJs7yv6D4JIbk3-5" value="Clonar Repositorio (código)" style="rounded=1;whiteSpace=wrap;html=1;" vertex="1" parent="1">
          <mxGeometry x="380" y="180" width="120" height="60" as="geometry" />
        </mxCell>
        <mxCell id="fL5yJduJs7yv6D4JIbk3-6" value="" style="endArrow=classic;html=1;rounded=0;exitX=1;exitY=0.5;exitDx=0;exitDy=0;" edge="1" parent="1" source="fL5yJduJs7yv6D4JIbk3-5">
          <mxGeometry width="50" height="50" relative="1" as="geometry">
            <mxPoint x="680" y="260" as="sourcePoint" />
            <mxPoint x="540" y="210" as="targetPoint" />
          </mxGeometry>
        </mxCell>
        <mxCell id="fL5yJduJs7yv6D4JIbk3-9" value="Activada&lt;div&gt;Compilación&lt;/div&gt;" style="rhombus;whiteSpace=wrap;html=1;" vertex="1" parent="1">
          <mxGeometry x="100" y="360" width="80" height="80" as="geometry" />
        </mxCell>
        <mxCell id="fL5yJduJs7yv6D4JIbk3-10" value="" style="endArrow=classic;html=1;rounded=0;exitX=1;exitY=0.5;exitDx=0;exitDy=0;" edge="1" parent="1">
          <mxGeometry width="50" height="50" relative="1" as="geometry">
            <mxPoint x="180" y="399.5" as="sourcePoint" />
            <mxPoint x="220" y="399.5" as="targetPoint" />
          </mxGeometry>
        </mxCell>
        <mxCell id="fL5yJduJs7yv6D4JIbk3-28" value="Si" style="edgeLabel;html=1;align=center;verticalAlign=middle;resizable=0;points=[];" vertex="1" connectable="0" parent="fL5yJduJs7yv6D4JIbk3-10">
          <mxGeometry x="-0.2667" y="4" relative="1" as="geometry">
            <mxPoint as="offset" />
          </mxGeometry>
        </mxCell>
        <mxCell id="fL5yJduJs7yv6D4JIbk3-11" value="" style="endArrow=classic;html=1;rounded=0;exitX=1;exitY=0.5;exitDx=0;exitDy=0;entryX=0;entryY=0.5;entryDx=0;entryDy=0;" edge="1" parent="1" target="fL5yJduJs7yv6D4JIbk3-15">
          <mxGeometry width="50" height="50" relative="1" as="geometry">
            <mxPoint x="140" y="360" as="sourcePoint" />
            <mxPoint x="220" y="290" as="targetPoint" />
            <Array as="points">
              <mxPoint x="140" y="290" />
              <mxPoint x="380" y="290" />
            </Array>
          </mxGeometry>
        </mxCell>
        <mxCell id="fL5yJduJs7yv6D4JIbk3-30" value="No" style="edgeLabel;html=1;align=center;verticalAlign=middle;resizable=0;points=[];" vertex="1" connectable="0" parent="fL5yJduJs7yv6D4JIbk3-11">
          <mxGeometry x="-0.0349" y="1" relative="1" as="geometry">
            <mxPoint as="offset" />
          </mxGeometry>
        </mxCell>
        <mxCell id="fL5yJduJs7yv6D4JIbk3-13" value="Compilación del código" style="rounded=1;whiteSpace=wrap;html=1;" vertex="1" parent="1">
          <mxGeometry x="220" y="370" width="120" height="60" as="geometry" />
        </mxCell>
        <mxCell id="fL5yJduJs7yv6D4JIbk3-14" value="" style="endArrow=classic;html=1;rounded=0;exitX=1;exitY=0.5;exitDx=0;exitDy=0;" edge="1" parent="1" source="fL5yJduJs7yv6D4JIbk3-13">
          <mxGeometry width="50" height="50" relative="1" as="geometry">
            <mxPoint x="520" y="450" as="sourcePoint" />
            <mxPoint x="380" y="400" as="targetPoint" />
          </mxGeometry>
        </mxCell>
        <mxCell id="fL5yJduJs7yv6D4JIbk3-15" value="Activado&lt;div&gt;Test&lt;/div&gt;" style="rhombus;whiteSpace=wrap;html=1;" vertex="1" parent="1">
          <mxGeometry x="380" y="360" width="80" height="80" as="geometry" />
        </mxCell>
        <mxCell id="fL5yJduJs7yv6D4JIbk3-16" value="Generar imagen docker" style="rounded=1;whiteSpace=wrap;html=1;" vertex="1" parent="1">
          <mxGeometry x="540" y="180" width="120" height="60" as="geometry" />
        </mxCell>
        <mxCell id="fL5yJduJs7yv6D4JIbk3-17" value="" style="endArrow=classic;html=1;rounded=0;exitX=1;exitY=0.5;exitDx=0;exitDy=0;" edge="1" parent="1" source="fL5yJduJs7yv6D4JIbk3-16">
          <mxGeometry width="50" height="50" relative="1" as="geometry">
            <mxPoint x="840" y="260" as="sourcePoint" />
            <mxPoint x="700" y="210" as="targetPoint" />
          </mxGeometry>
        </mxCell>
        <mxCell id="fL5yJduJs7yv6D4JIbk3-18" value="Generar contenedor docker" style="rounded=1;whiteSpace=wrap;html=1;" vertex="1" parent="1">
          <mxGeometry x="700" y="180" width="120" height="60" as="geometry" />
        </mxCell>
        <mxCell id="fL5yJduJs7yv6D4JIbk3-19" value="" style="endArrow=classic;html=1;rounded=0;exitX=1;exitY=0.5;exitDx=0;exitDy=0;" edge="1" parent="1" source="fL5yJduJs7yv6D4JIbk3-18">
          <mxGeometry width="50" height="50" relative="1" as="geometry">
            <mxPoint x="1000" y="260" as="sourcePoint" />
            <mxPoint x="860" y="210" as="targetPoint" />
          </mxGeometry>
        </mxCell>
        <mxCell id="fL5yJduJs7yv6D4JIbk3-20" value="" style="endArrow=classic;html=1;rounded=0;exitX=1;exitY=0.5;exitDx=0;exitDy=0;" edge="1" parent="1">
          <mxGeometry width="50" height="50" relative="1" as="geometry">
            <mxPoint x="60" y="399.5" as="sourcePoint" />
            <mxPoint x="100" y="399.5" as="targetPoint" />
          </mxGeometry>
        </mxCell>
        <mxCell id="fL5yJduJs7yv6D4JIbk3-22" value="" style="endArrow=classic;html=1;rounded=0;exitX=1;exitY=0.5;exitDx=0;exitDy=0;" edge="1" parent="1">
          <mxGeometry width="50" height="50" relative="1" as="geometry">
            <mxPoint x="460" y="399.5" as="sourcePoint" />
            <mxPoint x="500" y="399.5" as="targetPoint" />
          </mxGeometry>
        </mxCell>
        <mxCell id="fL5yJduJs7yv6D4JIbk3-32" value="Si" style="edgeLabel;html=1;align=center;verticalAlign=middle;resizable=0;points=[];" vertex="1" connectable="0" parent="fL5yJduJs7yv6D4JIbk3-22">
          <mxGeometry x="-0.4167" y="1" relative="1" as="geometry">
            <mxPoint as="offset" />
          </mxGeometry>
        </mxCell>
        <mxCell id="fL5yJduJs7yv6D4JIbk3-23" value="" style="endArrow=classic;html=1;rounded=0;exitX=1;exitY=0.5;exitDx=0;exitDy=0;" edge="1" parent="1">
          <mxGeometry width="50" height="50" relative="1" as="geometry">
            <mxPoint x="420" y="360" as="sourcePoint" />
            <mxPoint x="850" y="400" as="targetPoint" />
            <Array as="points">
              <mxPoint x="420" y="290" />
              <mxPoint x="660" y="290" />
              <mxPoint x="850" y="290" />
            </Array>
          </mxGeometry>
        </mxCell>
        <mxCell id="fL5yJduJs7yv6D4JIbk3-31" value="No" style="edgeLabel;html=1;align=center;verticalAlign=middle;resizable=0;points=[];" vertex="1" connectable="0" parent="fL5yJduJs7yv6D4JIbk3-23">
          <mxGeometry x="-0.1206" y="1" relative="1" as="geometry">
            <mxPoint as="offset" />
          </mxGeometry>
        </mxCell>
        <mxCell id="fL5yJduJs7yv6D4JIbk3-24" value="Testeo del código" style="rounded=1;whiteSpace=wrap;html=1;" vertex="1" parent="1">
          <mxGeometry x="500" y="370" width="120" height="60" as="geometry" />
        </mxCell>
        <mxCell id="fL5yJduJs7yv6D4JIbk3-25" value="" style="endArrow=classic;html=1;rounded=0;exitX=1;exitY=0.5;exitDx=0;exitDy=0;" edge="1" parent="1" source="fL5yJduJs7yv6D4JIbk3-24">
          <mxGeometry width="50" height="50" relative="1" as="geometry">
            <mxPoint x="800" y="450" as="sourcePoint" />
            <mxPoint x="660" y="400" as="targetPoint" />
          </mxGeometry>
        </mxCell>
        <mxCell id="fL5yJduJs7yv6D4JIbk3-26" value="Superado&lt;br&gt;Test" style="rhombus;whiteSpace=wrap;html=1;" vertex="1" parent="1">
          <mxGeometry x="660" y="360" width="80" height="80" as="geometry" />
        </mxCell>
        <mxCell id="fL5yJduJs7yv6D4JIbk3-35" value="Fallo&lt;br&gt;Email" style="rounded=1;whiteSpace=wrap;html=1;" vertex="1" parent="1">
          <mxGeometry x="715" y="320" width="90" height="30" as="geometry" />
        </mxCell>
        <mxCell id="fL5yJduJs7yv6D4JIbk3-36" value="" style="endArrow=classic;html=1;rounded=0;exitX=0.5;exitY=0;exitDx=0;exitDy=0;" edge="1" parent="1" source="fL5yJduJs7yv6D4JIbk3-26">
          <mxGeometry width="50" height="50" relative="1" as="geometry">
            <mxPoint x="675" y="334.5" as="sourcePoint" />
            <mxPoint x="715" y="334.5" as="targetPoint" />
            <Array as="points">
              <mxPoint x="700" y="335" />
            </Array>
          </mxGeometry>
        </mxCell>
        <mxCell id="fL5yJduJs7yv6D4JIbk3-37" value="No" style="edgeLabel;html=1;align=center;verticalAlign=middle;resizable=0;points=[];" vertex="1" connectable="0" parent="fL5yJduJs7yv6D4JIbk3-36">
          <mxGeometry x="-0.4335" relative="1" as="geometry">
            <mxPoint as="offset" />
          </mxGeometry>
        </mxCell>
        <mxCell id="fL5yJduJs7yv6D4JIbk3-38" value="" style="endArrow=classic;html=1;rounded=0;exitX=1;exitY=0.5;exitDx=0;exitDy=0;" edge="1" parent="1">
          <mxGeometry width="50" height="50" relative="1" as="geometry">
            <mxPoint x="740" y="399.5" as="sourcePoint" />
            <mxPoint x="860" y="400" as="targetPoint" />
          </mxGeometry>
        </mxCell>
        <mxCell id="fL5yJduJs7yv6D4JIbk3-39" value="Si" style="edgeLabel;html=1;align=center;verticalAlign=middle;resizable=0;points=[];" vertex="1" connectable="0" parent="fL5yJduJs7yv6D4JIbk3-38">
          <mxGeometry x="-0.1667" y="2" relative="1" as="geometry">
            <mxPoint as="offset" />
          </mxGeometry>
        </mxCell>
        <mxCell id="fL5yJduJs7yv6D4JIbk3-40" value="Subida artefactos" style="rounded=1;whiteSpace=wrap;html=1;" vertex="1" parent="1">
          <mxGeometry x="100" y="525" width="120" height="60" as="geometry" />
        </mxCell>
        <mxCell id="fL5yJduJs7yv6D4JIbk3-41" value="" style="endArrow=classic;html=1;rounded=0;exitX=1;exitY=0.5;exitDx=0;exitDy=0;" edge="1" parent="1">
          <mxGeometry width="50" height="50" relative="1" as="geometry">
            <mxPoint x="60" y="554.5" as="sourcePoint" />
            <mxPoint x="100" y="554.5" as="targetPoint" />
          </mxGeometry>
        </mxCell>
        <mxCell id="fL5yJduJs7yv6D4JIbk3-42" value="Eliminar contenedor" style="rounded=1;whiteSpace=wrap;html=1;" vertex="1" parent="1">
          <mxGeometry x="260" y="525" width="120" height="60" as="geometry" />
        </mxCell>
        <mxCell id="fL5yJduJs7yv6D4JIbk3-43" value="" style="endArrow=classic;html=1;rounded=0;exitX=1;exitY=0.5;exitDx=0;exitDy=0;" edge="1" parent="1">
          <mxGeometry width="50" height="50" relative="1" as="geometry">
            <mxPoint x="220" y="554.5" as="sourcePoint" />
            <mxPoint x="260" y="554.5" as="targetPoint" />
          </mxGeometry>
        </mxCell>
        <mxCell id="fL5yJduJs7yv6D4JIbk3-44" value="Eliminar Imagen" style="rounded=1;whiteSpace=wrap;html=1;" vertex="1" parent="1">
          <mxGeometry x="420" y="525" width="120" height="60" as="geometry" />
        </mxCell>
        <mxCell id="fL5yJduJs7yv6D4JIbk3-45" value="" style="endArrow=classic;html=1;rounded=0;exitX=1;exitY=0.5;exitDx=0;exitDy=0;" edge="1" parent="1">
          <mxGeometry width="50" height="50" relative="1" as="geometry">
            <mxPoint x="380" y="554.5" as="sourcePoint" />
            <mxPoint x="420" y="554.5" as="targetPoint" />
          </mxGeometry>
        </mxCell>
        <mxCell id="fL5yJduJs7yv6D4JIbk3-46" value="Limpieza workspace" style="rounded=1;whiteSpace=wrap;html=1;" vertex="1" parent="1">
          <mxGeometry x="580" y="525" width="120" height="60" as="geometry" />
        </mxCell>
        <mxCell id="fL5yJduJs7yv6D4JIbk3-47" value="" style="endArrow=classic;html=1;rounded=0;exitX=1;exitY=0.5;exitDx=0;exitDy=0;" edge="1" parent="1">
          <mxGeometry width="50" height="50" relative="1" as="geometry">
            <mxPoint x="540" y="554.5" as="sourcePoint" />
            <mxPoint x="580" y="554.5" as="targetPoint" />
          </mxGeometry>
        </mxCell>
      </root>
    </mxGraphModel>
  </diagram>
</mxfile>
